<?xml version="1.0" encoding="utf-8"?>
<!-- Generator: Adobe Illustrator 24.2.3, SVG Export Plug-In . SVG Version: 6.00 Build 0)  -->
<svg version="1.1" id="_x37_.0_-_FINAL_copy" xmlns="http://www.w3.org/2000/svg" xmlns:xlink="http://www.w3.org/1999/xlink"
	 x="0px" y="0px" viewBox="0 0 1024 1024" style="enable-background:new 0 0 1024 1024;" xml:space="preserve">
<style type="text/css">
	.st0{fill:#999999;}
	.st1{fill:#FFFFFF;}
</style>
<path class="st0" d="M789,0H235C105.8,0,0,105.8,0,235v554c0,129.2,105.8,235,235,235h554c129.2,0,235-105.8,235-235V235
	C1024,105.8,918.2,0,789,0z"/>
<g>
	<path class="st1" d="M734.2,369H565.8c-11,0-20-9-20-20s9-20,20-20h168.4c11,0,20,9,20,20S745.3,369,734.2,369z"/>
	<path class="st1" d="M572.4,181h-89.8c-11,0-20-9-20-20s9-20,20-20h89.8c11,0,20,9,20,20S583.4,181,572.4,181z"/>
	<path class="st1" d="M653.9,274.3H525.3c-11,0-20-9-20-20s9-20,20-20h128.6c11,0,20,9,20,20S664.9,274.3,653.9,274.3z"/>
	<path class="st1" d="M484.5,369c-0.6,0-1.3,0-2-0.1s-1.3-0.2-1.9-0.3c-0.6-0.1-1.3-0.3-1.9-0.5s-1.2-0.4-1.8-0.7
		c-0.6-0.2-1.2-0.5-1.8-0.8c-0.6-0.3-1.1-0.6-1.7-1c-0.5-0.4-1.1-0.8-1.6-1.2c-0.5-0.4-1-0.9-1.5-1.3c-0.5-0.5-0.9-0.9-1.3-1.5
		c-0.4-0.5-0.8-1-1.2-1.6c-0.4-0.5-0.7-1.1-1-1.7s-0.6-1.2-0.8-1.8s-0.5-1.2-0.7-1.9c-0.2-0.6-0.3-1.3-0.5-1.9
		c-0.1-0.6-0.2-1.3-0.3-1.9c-0.1-0.6-0.1-1.3-0.1-2s0-1.3,0.1-2c0.1-0.6,0.2-1.3,0.3-1.9s0.3-1.3,0.5-1.9s0.4-1.2,0.7-1.8
		c0.2-0.6,0.5-1.2,0.8-1.8c0.3-0.6,0.6-1.1,1-1.7c0.4-0.5,0.8-1.1,1.2-1.6c0.4-0.5,0.9-1,1.3-1.5c0.5-0.5,1-0.9,1.5-1.3
		s1-0.8,1.6-1.2c0.5-0.4,1.1-0.7,1.7-1s1.2-0.6,1.8-0.8c0.6-0.2,1.2-0.5,1.8-0.7c0.6-0.2,1.3-0.3,1.9-0.5c0.6-0.1,1.3-0.2,1.9-0.3
		c1.3-0.1,2.6-0.1,3.9,0c0.6,0.1,1.3,0.2,1.9,0.3c0.6,0.1,1.3,0.3,1.9,0.5s1.2,0.4,1.8,0.7c0.6,0.2,1.2,0.5,1.8,0.8
		c0.6,0.3,1.1,0.6,1.7,1c0.5,0.4,1.1,0.8,1.6,1.2c0.5,0.4,1,0.8,1.5,1.3c3.7,3.7,5.9,8.9,5.9,14.1c0,0.6,0,1.3-0.1,2
		c-0.1,0.6-0.2,1.3-0.3,1.9c-0.1,0.6-0.3,1.3-0.5,1.9s-0.4,1.2-0.7,1.9s-0.5,1.2-0.8,1.8c-0.3,0.6-0.6,1.1-1,1.7
		c-0.4,0.5-0.8,1.1-1.2,1.6c-0.4,0.5-0.9,1-1.3,1.5c-0.5,0.5-1,0.9-1.5,1.3s-1,0.8-1.6,1.2c-0.5,0.4-1.1,0.7-1.7,1s-1.2,0.6-1.8,0.8
		c-0.6,0.2-1.2,0.5-1.8,0.7c-0.6,0.2-1.3,0.4-1.9,0.5s-1.3,0.2-1.9,0.3S485.1,369,484.5,369z"/>
	<path class="st1" d="M573.5,783.4c-8,0-15.6-4.9-18.7-12.8c-4-10.3,1.2-21.9,11.5-25.8c16.3-6.3,30-18.2,38.5-33.6
		c10.3-18.7,12.5-41.8,5.9-62c-5.8-17.7-17.8-31.5-33.8-38.8c-10-4.6-14.4-16.5-9.8-26.5c4.6-10,16.5-14.4,26.5-9.8
		c26.2,12,45.8,34.3,55.1,62.7c10.2,31,6.9,65.2-8.9,93.8c-13,23.6-34.1,41.9-59.2,51.5C578.3,783,575.9,783.4,573.5,783.4z"/>
	<path class="st1" d="M395.2,541.7c-2.7,0-5.5-0.6-8.1-1.7c-49.1-21.8-86-63.1-103.9-116.5c-9.7-28.7-13.3-60.3-10.7-91.2
		c2.7-31.7,12.2-62.9,27.4-90.4c19.6-35.5,48.6-64.8,83.8-84.6c9.6-5.4,21.8-2,27.2,7.6s2,21.8-7.6,27.2
		c-28.7,16.2-52.4,40.1-68.5,69.2c-24.9,45.1-30.1,101-13.8,149.5c14.3,42.6,43.5,75.5,82.2,92.6c10.1,4.5,14.6,16.3,10.2,26.4
		C410.2,537.3,402.9,541.7,395.2,541.7z"/>
	<path class="st1" d="M458.2,695H289.8c-11,0-20-9-20-20s9-20,20-20h168.4c11,0,20,9,20,20S469.2,695,458.2,695z"/>
	<path class="st1" d="M541.4,883h-89.8c-11,0-20-9-20-20s9-20,20-20h89.8c11,0,20,9,20,20S552.5,883,541.4,883z"/>
	<path class="st1" d="M498.7,789.7H370.1c-11,0-20-9-20-20s9-20,20-20h128.6c11,0,20,9,20,20S509.8,789.7,498.7,789.7z"/>
	<path class="st1" d="M539.5,695c-0.6,0-1.3,0-2-0.1c-0.6-0.1-1.3-0.2-1.9-0.3c-0.6-0.1-1.3-0.3-1.9-0.5c-0.6-0.2-1.2-0.4-1.8-0.7
		c-0.6-0.2-1.2-0.5-1.8-0.8s-1.1-0.6-1.7-1s-1.1-0.8-1.6-1.2s-1-0.9-1.5-1.3c-0.5-0.5-0.9-1-1.3-1.5c-0.4-0.5-0.8-1-1.2-1.6
		c-0.4-0.5-0.7-1.1-1-1.7c-0.3-0.6-0.6-1.2-0.8-1.8s-0.5-1.2-0.7-1.8s-0.3-1.3-0.5-1.9c-0.1-0.6-0.2-1.3-0.3-1.9
		c-0.1-0.7-0.1-1.3-0.1-2s0-1.3,0.1-2s0.2-1.3,0.3-2c0.1-0.6,0.3-1.3,0.5-1.9c0.2-0.6,0.4-1.2,0.7-1.9c0.2-0.6,0.5-1.2,0.8-1.8
		s0.6-1.1,1-1.7c0.4-0.5,0.8-1.1,1.2-1.6s0.9-1,1.3-1.5s1-0.9,1.5-1.3c0.5-0.4,1-0.8,1.6-1.2c0.5-0.4,1.1-0.7,1.7-1
		c0.6-0.3,1.2-0.6,1.8-0.8s1.2-0.5,1.8-0.7s1.3-0.4,1.9-0.5c0.6-0.1,1.3-0.2,1.9-0.3c1.3-0.1,2.6-0.1,3.9,0c0.6,0.1,1.3,0.2,1.9,0.3
		c0.6,0.1,1.3,0.3,1.9,0.5c0.6,0.2,1.2,0.4,1.8,0.7c0.6,0.2,1.2,0.5,1.8,0.8s1.1,0.6,1.7,1c0.5,0.4,1.1,0.8,1.6,1.2s1,0.9,1.5,1.3
		s0.9,1,1.3,1.5c0.4,0.5,0.8,1,1.2,1.6c0.4,0.5,0.7,1.1,1,1.7c0.3,0.6,0.6,1.2,0.8,1.8s0.5,1.2,0.7,1.9c0.2,0.6,0.4,1.3,0.5,1.9
		c0.1,0.6,0.2,1.3,0.3,2c0.1,0.6,0.1,1.3,0.1,2c0,0.6,0,1.3-0.1,2s-0.2,1.3-0.3,1.9c-0.1,0.6-0.3,1.3-0.5,1.9
		c-0.2,0.6-0.4,1.2-0.7,1.8c-0.2,0.6-0.5,1.2-0.8,1.8s-0.6,1.1-1,1.7c-0.4,0.5-0.8,1.1-1.2,1.6s-0.9,1-1.3,1.5
		c-0.5,0.5-1,0.9-1.5,1.3c-0.5,0.4-1,0.8-1.6,1.2c-0.5,0.4-1.1,0.7-1.7,1c-0.6,0.3-1.2,0.6-1.8,0.8s-1.2,0.5-1.8,0.7
		s-1.3,0.3-1.9,0.5c-0.6,0.1-1.3,0.2-1.9,0.3S540.2,695,539.5,695z"/>
	<path class="st1" d="M630.5,869.3c-7,0-13.8-3.7-17.4-10.2c-5.4-9.6-2-21.8,7.6-27.2c28.7-16.2,52.4-40.1,68.5-69.2
		c24.9-45.1,30.1-98.9,14-147.6c-14.2-43.1-43.5-76.7-82.7-94.6c-10-4.6-14.4-16.5-9.8-26.5c4.6-10,16.5-14.4,26.5-9.8
		c49.4,22.6,86.3,64.7,104,118.5c19.5,59.2,13.3,124.6-17,179.5c-19.6,35.5-48.6,64.8-83.8,84.6
		C637.2,868.5,633.8,869.3,630.5,869.3z"/>
	<path class="st1" d="M438.7,451.8c-2.8,0-5.6-0.6-8.3-1.8c-26.2-12-45.8-34.3-55.1-62.7c-10.2-31-6.9-65.2,8.9-93.8
		c13-23.6,34.1-41.9,59.2-51.5c10.3-4,21.9,1.2,25.8,11.5c4,10.3-1.2,21.9-11.5,25.8c-16.3,6.3-30,18.2-38.5,33.6
		c-10.3,18.7-12.5,41.8-5.9,62c5.8,17.7,17.8,31.5,33.8,38.8c10,4.6,14.4,16.5,9.8,26.5C453.5,447.5,446.3,451.8,438.7,451.8z"/>
	<path class="st1" d="M517.9,586.7c-2.2,0-4.4-0.4-6.5-1.1c-12.5-4.3-54.2-19.1-56-19.8c-10.4-3.7-15.8-15.1-12.1-25.5
		s15.1-15.8,25.5-12.1c0.4,0.2,43.3,15.4,55.6,19.6c10.4,3.6,16,15,12.4,25.4C533.9,581.5,526.2,586.7,517.9,586.7z"/>
	<path class="st1" d="M557.6,495.9c-2.2,0-4.4-0.4-6.5-1.1c-12.5-4.3-54.2-19.1-56-19.8c-10.4-3.7-15.8-15.1-12.1-25.5
		s15.1-15.8,25.5-12.1c0.4,0.2,43.3,15.4,55.6,19.6c10.4,3.6,16,15,12.4,25.4C573.6,490.7,565.9,495.9,557.6,495.9z"/>
</g>
</svg>
